<?xml version="1.0" standalone="no"?>
<!DOCTYPE svg PUBLIC "-//W3C//DTD SVG 20010904//EN"
 "http://www.w3.org/TR/2001/REC-SVG-20010904/DTD/svg10.dtd">
<svg version="1.0" xmlns="http://www.w3.org/2000/svg"
 width="700.000000pt" height="700.000000pt" viewBox="0 0 700.000000 700.000000"
 preserveAspectRatio="xMidYMid meet">
<metadata>
Created by potrace 1.14, written by Peter Selinger 2001-2017
</metadata>
<g transform="translate(0.000000,700.000000) scale(0.100000,-0.100000)"
fill="#000000" stroke="none">
<path d="M3269 6939 c-1269 -81 -2408 -880 -2923 -2048 -198 -450 -289 -889
-289 -1391 0 -552 108 -1023 348 -1515 252 -517 629 -959 1110 -1302 768 -546
1756 -751 2690 -557 756 157 1444 570 1939 1164 808 968 1024 2296 564 3470
-451 1148 -1487 1972 -2706 2150 -249 36 -481 45 -733 29z m281 -474 c66 -34
75 -117 20 -170 -28 -27 -31 -28 -192 -35 -361 -18 -694 -96 -1018 -239 -464
-207 -894 -576 -1175 -1010 -55 -84 -86 -111 -132 -111 -26 0 -43 8 -69 34
-54 54 -49 90 32 211 425 636 1043 1070 1778 1249 294 72 684 108 756 71z m22
-592 c35 -33 43 -72 24 -116 -19 -48 -60 -67 -139 -67 -185 0 -449 -47 -661
-117 -456 -152 -848 -455 -1134 -880 -62 -91 -132 -107 -187 -41 -54 64 -22
138 153 358 422 531 1074 861 1767 894 108 5 147 -2 177 -31z m154 -1028 c438
-75 820 -366 1008 -766 24 -52 47 -105 51 -119 7 -21 6 -23 -7 -12 -13 10 -41
4 -159 -33 -78 -25 -146 -45 -150 -45 -4 0 1 21 13 47 24 55 36 194 19 236 -9
24 -16 28 -43 25 -31 -3 -34 -7 -54 -69 -48 -150 -147 -292 -211 -303 -18 -3
-33 -4 -33 -2 0 2 12 29 26 61 30 65 44 200 25 248 -9 24 -16 28 -43 25 -31
-3 -34 -7 -54 -69 -29 -91 -86 -195 -139 -256 -40 -45 -50 -51 -90 -55 -37 -3
-50 1 -67 19 l-20 22 41 11 c23 6 61 28 83 48 43 38 88 120 88 160 0 19 -5 22
-43 22 -123 0 -207 -59 -253 -177 0 -2 -26 6 -57 17 -76 27 -84 26 -91 -13 -3
-18 -13 -43 -22 -55 -18 -27 -48 -30 -40 -4 2 9 8 36 11 60 6 35 4 42 -10 42
-12 0 -16 -8 -14 -27 1 -16 1 -39 0 -53 -2 -25 -2 -25 -18 5 -8 17 -22 38 -30
47 -14 15 -13 18 11 24 22 5 24 9 14 21 -6 8 -23 20 -37 27 -26 13 -91 29 -91
22 0 -2 18 -16 40 -31 22 -15 40 -30 40 -34 0 -3 -26 -15 -57 -27 -32 -12 -65
-24 -74 -28 -13 -6 -20 1 -29 29 -29 87 -113 145 -224 153 l-68 5 7 -34 c23
-106 85 -173 187 -203 36 -11 37 -11 19 -35 -17 -23 -20 -23 -97 -13 -77 10
-80 12 -126 62 -63 67 -122 168 -149 255 -27 83 -34 95 -64 95 -37 0 -47 -23
-47 -112 1 -87 18 -157 54 -216 l20 -33 -28 7 c-46 10 -72 31 -120 97 -56 76
-86 133 -110 212 -10 33 -22 66 -27 73 -13 17 -52 15 -67 -3 -20 -25 -16 -169
7 -236 l19 -57 -50 18 c-28 10 -73 27 -101 37 -27 11 -56 18 -62 16 -7 -3 -13
-1 -13 3 0 20 98 208 147 283 72 108 228 270 334 346 161 116 369 204 564 239
109 19 350 20 461 1z m-1211 -927 c31 -76 31 -80 0 -43 -57 68 -91 171 -78
236 5 28 8 24 29 -50 13 -45 35 -109 49 -143z m249 95 c9 -34 30 -95 46 -135
l30 -73 -35 39 c-44 49 -75 132 -75 198 0 64 11 54 34 -29z m1713 23 c-8 -77
-65 -178 -117 -206 -12 -6 -2 19 31 77 27 48 56 109 66 135 9 27 19 48 21 48
3 0 2 -24 -1 -54z m-300 -40 c-3 -29 -15 -72 -27 -95 -20 -41 -89 -125 -96
-118 -2 2 23 57 56 121 33 65 60 125 60 132 0 8 3 14 6 14 4 0 4 -24 1 -54z
m-1017 -120 c52 -35 53 -36 24 -36 -69 0 -164 78 -164 134 0 17 6 14 43 -21
23 -23 67 -58 97 -77z m800 60 c-26 -54 -70 -84 -136 -92 l-49 -6 50 30 c28
17 73 50 100 75 28 25 52 43 54 42 2 -2 -7 -24 -19 -49z m-1724 -28 c62 -69
318 -238 476 -313 95 -45 319 -125 350 -125 12 0 27 -21 47 -65 16 -35 42 -80
56 -100 l27 -35 -22 -82 c-42 -154 -37 -355 10 -493 16 -46 17 -55 4 -66 -8
-6 -14 -24 -14 -40 0 -30 22 -50 70 -64 13 -4 43 -27 66 -51 62 -64 116 -88
194 -88 78 0 132 24 194 88 23 24 58 48 79 55 21 7 45 24 54 38 15 23 15 27
-1 58 -17 31 -17 37 -2 82 44 136 47 331 6 480 l-22 82 36 42 c19 23 43 63 52
88 8 25 19 52 22 59 4 8 68 34 142 58 74 24 203 78 285 118 156 77 411 237
437 275 15 21 17 17 44 -91 23 -93 28 -142 32 -278 6 -253 -31 -430 -138 -645
-73 -147 -159 -263 -283 -382 -259 -247 -575 -373 -937 -373 -362 0 -678 126
-937 373 -220 210 -357 467 -408 761 -19 115 -19 338 0 451 18 103 46 205 55
205 4 0 15 -10 26 -22z m1043 -1353 c14 -13 12 -15 -18 -15 -37 0 -71 15 -71
32 0 15 70 2 89 -17z m531 16 c0 -14 -64 -33 -85 -25 -15 6 -15 8 6 20 28 15
79 18 79 5z m1713 -221 c57 -63 26 -137 -151 -360 -413 -520 -1052 -849 -1724
-889 -168 -10 -182 -8 -220 27 -36 33 -45 80 -24 121 23 43 63 61 139 61 157
0 420 42 594 94 475 143 878 441 1177 869 70 100 96 120 151 112 17 -3 42 -19
58 -35z m493 -284 c54 -54 49 -90 -32 -211 -164 -246 -409 -515 -624 -685
-468 -371 -1020 -589 -1615 -640 -248 -21 -308 -12 -341 51 -21 42 -12 88 26
124 28 27 31 28 197 36 282 13 519 58 775 145 565 193 1060 575 1395 1077 36
53 77 106 90 117 40 32 89 26 129 -14z"/>
<path d="M3506 3973 c9 -58 11 -63 39 -63 l25 0 -19 38 c-11 21 -26 44 -35 51
-13 11 -14 8 -10 -26z"/>
<path d="M3621 2399 c-71 -38 -150 -39 -235 -4 l-59 24 38 -39 c48 -49 111
-75 161 -67 45 8 105 46 134 86 12 17 20 30 18 30 -2 -1 -27 -15 -57 -30z"/>
</g>
</svg>
