<?xml version="1.0" encoding="UTF-8" standalone="no"?>
<svg
   id="svg18"
   xml:space="preserve"
   viewBox="0 0 271 271"
   version="1.1"
   sodipodi:docname="logo2 (1).svg"
   inkscape:version="1.1 (c4e8f9ed74, 2021-05-24)"
   xmlns:inkscape="http://www.inkscape.org/namespaces/inkscape"
   xmlns:sodipodi="http://sodipodi.sourceforge.net/DTD/sodipodi-0.dtd"
   xmlns="http://www.w3.org/2000/svg"
   xmlns:svg="http://www.w3.org/2000/svg"
   xmlns:rdf="http://www.w3.org/1999/02/22-rdf-syntax-ns#"
   xmlns:cc="http://creativecommons.org/ns#"
   xmlns:dc="http://purl.org/dc/elements/1.1/"><sodipodi:namedview
     id="namedview63"
     pagecolor="#505050"
     bordercolor="#eeeeee"
     borderopacity="1"
     inkscape:pageshadow="0"
     inkscape:pageopacity="0"
     inkscape:pagecheckerboard="0"
     showgrid="false"
     inkscape:zoom="2.0665261"
     inkscape:cx="86.134891"
     inkscape:cy="171.78588"
     inkscape:window-width="1920"
     inkscape:window-height="997"
     inkscape:window-x="0"
     inkscape:window-y="0"
     inkscape:window-maximized="1"
     inkscape:current-layer="svg18" /><metadata
     id="metadata22"><rdf:RDF><cc:Work
         rdf:about=""><dc:format>image/svg+xml</dc:format><dc:type
           rdf:resource="http://purl.org/dc/dcmitype/StillImage" /></cc:Work></rdf:RDF></metadata><desc
     id="desc2">Created with Fabric.js 2.4.6</desc><defs
     id="defs4" /><g
     id="g8"
     transform="matrix(2.4109338,0,0,2.4708835,135.5,135.5)"><path
       id="circle6"
       d="M 50,0 A 50,50 0 0 1 0,50 50,50 0 0 1 -50,0 50,50 0 0 1 0,-50 50,50 0 0 1 50,0 Z"
       style="opacity:1;fill:#ffffff;fill-rule:nonzero;stroke:#000000;stroke-width:0;stroke-linecap:butt;stroke-linejoin:miter;stroke-miterlimit:4;stroke-dasharray:none;stroke-dashoffset:0" /></g><g
     id="g12"
     transform="matrix(2.78,0,0,2.78,135.5,135.5)"><path
       id="path10"
       d="m 50.5,1.5 c -26.51,0 -48,21.49 -48,48 0,26.51 21.49,48 48,48 26.51,0 48,-21.49 48,-48 0,-26.51 -21.49,-48 -48,-48 z m 25.847,64.202 c 0.442,-0.703 1.369,-0.911 2.068,-0.473 0.701,0.441 0.913,1.367 0.473,2.068 C 72.71,77.13 62.098,83 50.5,83 49.672,83 49,82.328 49,81.5 49,80.672 49.672,80 50.5,80 61.06,80 70.723,74.655 76.347,65.702 Z M 16.448,30 C 16.178,30 15.906,29.928 15.66,29.776 14.956,29.34 14.737,28.416 15.173,27.711 22.801,15.369 36.008,8 50.5,8 51.328,8 52,8.672 52,9.5 52,10.328 51.328,11 50.5,11 37.055,11 24.803,17.837 17.726,29.289 17.441,29.748 16.95,30 16.448,30 Z m 8.205,3.298 C 24.368,33.752 23.88,34 23.382,34 23.109,34 22.833,33.926 22.585,33.771 21.884,33.33 21.672,32.404 22.112,31.703 28.29,21.87 38.902,16 50.5,16 51.328,16 52,16.672 52,17.5 52,18.328 51.328,19 50.5,19 39.94,19 30.277,24.345 24.653,33.298 Z M 31.5,49.5 c 0,-10.493 8.507,-19 19,-19 10.492,0 19,8.507 19,19 0,10.492 -8.508,19 -19,19 -10.493,0 -19,-8.508 -19,-19 z M 50.5,91 C 49.672,91 49,90.328 49,89.5 49,88.672 49.672,88 50.5,88 c 13.445,0 25.697,-6.837 32.774,-18.289 0.437,-0.706 1.36,-0.92 2.065,-0.487 0.704,0.436 0.923,1.36 0.487,2.065 C 78.199,83.631 64.992,91 50.5,91 Z m 4,-41.5 c 0,-2.209 -1.791,-4 -4,-4 -2.209,0 -4,1.791 -4,4 0,2.209 1.791,4 4,4 2.209,0 4,-1.791 4,-4 z"
       transform="translate(-50.5,-49.5)"
       style="opacity:1;fill:#c63030;fill-rule:nonzero;stroke:none;stroke-width:1;stroke-linecap:butt;stroke-linejoin:miter;stroke-miterlimit:4;stroke-dasharray:none;stroke-dashoffset:0" /></g><g
     id="g16"
     transform="matrix(1.11,0,0,1.11,135.50342,144.75156)"><path
       id="path14"
       d="m 46.588,43.95 c 0,0.623 -0.505,1.128 -1.128,1.128 -0.623,0 -1.128,-0.505 -1.128,-1.128 0,-0.623 0.505,-1.128 1.128,-1.128 0.623,0 1.128,0.505 1.128,1.128 z M 94.267,25.948 c -10.654,7.9 -20.709,12.532 -29.998,14.868 -0.463,2.781 -1.887,5.278 -3.957,7.207 1.243,3.112 1.963,6.805 1.963,10.767 0,4.016 -0.74,7.757 -2.015,10.895 0.724,0.456 1.178,1.104 1.178,1.824 0,1.342 -1.571,2.434 -3.541,2.496 -2.207,3.031 -5.079,4.864 -8.221,4.864 -3.143,0 -6.017,-1.835 -8.224,-4.868 -1.916,-0.1 -3.425,-1.176 -3.425,-2.492 0,-0.691 0.416,-1.316 1.088,-1.769 -1.288,-3.15 -2.038,-6.91 -2.038,-10.95 0,-4.031 0.746,-7.784 2.029,-10.93 C 37.224,46.046 35.901,43.754 35.39,41.206 21.221,37.94 10.681,30.232 5.006,25.197 c -1.01,-0.896 0.14,-2.376 1.422,-1.832 2.226,0.945 4.453,1.794 6.674,2.556 -1.725,-3.127 -1.872,-6.628 -1.444,-9.671 0.222,-1.576 2.711,-1.66 3.068,-0.104 1.252,5.46 4.045,9.461 6.969,12.306 0.905,0.224 1.808,0.435 2.709,0.633 -2.817,-3.517 -3.121,-7.792 -2.612,-11.415 0.222,-1.576 2.711,-1.66 3.068,-0.104 1.356,5.91 4.516,10.111 7.693,12.985 1.79,0.252 3.566,0.456 5.326,0.619 0.472,-0.596 0.999,-1.154 1.572,-1.67 -7.779,-0.608 -8.245,-8.523 -8.245,-8.523 8.152,-0.402 10.109,4.29 10.48,6.871 2.321,-1.397 5.108,-2.212 8.107,-2.212 2.701,0 5.23,0.66 7.402,1.811 0.514,-2.635 2.667,-6.852 10.412,-6.47 0,0 -0.438,7.44 -7.553,8.448 0.549,0.487 1.057,1.012 1.516,1.572 1.073,-0.109 2.132,-0.229 3.175,-0.361 2.847,-2.83 5.537,-6.769 6.759,-12.098 0.357,-1.556 2.846,-1.472 3.068,0.104 0.481,3.416 0.237,7.412 -2.154,10.806 0.94,-0.173 1.861,-0.353 2.764,-0.537 2.733,-2.806 5.277,-6.652 6.456,-11.792 0.357,-1.556 2.846,-1.472 3.068,0.104 0.434,3.086 0.278,6.645 -1.519,9.806 3.848,-1.024 7.162,-2.08 9.822,-3.012 1.332,-0.467 2.361,1.112 1.258,1.931 z m -54.161,2.115 c 0,0 -4.095,-1.732 -7.323,-5.591 0,0 0.078,5.827 7.323,5.591 z m 7.539,15.887 c 0,-1.207 -0.978,-2.185 -2.185,-2.185 -1.207,0 -2.185,0.978 -2.185,2.185 0,1.207 0.978,2.185 2.185,2.185 1.206,0 2.185,-0.978 2.185,-2.185 z M 59.086,28.063 c 7.245,0.236 7.323,-5.591 7.323,-5.591 -3.229,3.859 -7.323,5.591 -7.323,5.591 z m -4.355,18.072 c 1.207,0 2.185,-0.978 2.185,-2.185 0,-1.207 -0.978,-2.185 -2.185,-2.185 -1.207,0 -2.185,0.978 -2.185,2.185 0,1.207 0.978,2.185 2.185,2.185 z M 55.86,43.95 c 0,-0.623 -0.505,-1.128 -1.128,-1.128 -0.623,0 -1.128,0.505 -1.128,1.128 0,0.623 0.505,1.128 1.128,1.128 0.623,0 1.128,-0.505 1.128,-1.128 z M 38.616,72.243 c 0,0 1.101,1.668 3.869,0.967 0,0 -1.768,-1.935 -3.869,-0.967 z m 18.288,0.824 c 2.768,0.7 3.869,-0.967 3.869,-0.967 -2.101,-0.968 -3.869,0.967 -3.869,0.967 z M 23.227,18.523 c 0,0 -2.133,5.631 3.498,10.836 0,0 -3.327,-7.508 -3.498,-10.836 z M 12.894,17.054 c 0,0 -2.133,5.631 3.498,10.836 0,0 -3.328,-7.508 -3.498,-10.836 z m 55.52,13.357 c 6.269,-4.416 4.897,-10.279 4.897,-10.279 -0.608,3.275 -4.897,10.279 -4.897,10.279 z m 10.437,-1.403 c 6.269,-4.416 4.897,-10.279 4.897,-10.279 -0.608,3.276 -4.897,10.279 -4.897,10.279 z m -29.693,0.351 c 2.166,-6.315 -5.525,-6.118 -5.525,-6.118 4.628,2.072 5.525,6.118 5.525,6.118 z m -0.222,1.742 c 6.721,-4.363 0.607,-9.439 0.607,-9.439 1.855,6.408 -0.607,9.439 -0.607,9.439 z m 7.405,45.636 c -6.533,5.862 -13.066,0.279 -13.066,0.279 7.274,9.978 13.066,-0.279 13.066,-0.279 z"
       style="opacity:1;fill:#c63030;fill-rule:nonzero;stroke:none;stroke-width:1;stroke-linecap:butt;stroke-linejoin:miter;stroke-miterlimit:4;stroke-dasharray:none;stroke-dashoffset:0"
       transform="translate(-49.68,-48.2)" /></g></svg>
